<svg xmlns="http://www.w3.org/2000/svg" viewBox="0 0 1280 720" width="1280" height="720" data-source="pptist-deck" data-slide-index="3">
  <rect width="1280" height="720" fill="#fff"/>
  <g data-pptist-id="iW1unC5a7t" data-pptist-type="shape"><g transform="rotate(135.00 647.56 720.00)"><g transform="translate(575.20 647.64) scale(1.333333 1.333333)"><path d="M 0 0 L 0 108.5339 L 108.5339 108.5339 Z" fill="#6d9fec30" stroke="#203864" stroke-width="0.00" opacity="1.000"/></g></g></g>
  <g data-pptist-id="LoeP6MxF0n" data-pptist-type="text"></g>
  <g data-pptist-id="jRTO2y0Ip4" data-pptist-type="text"></g>
  <g data-pptist-id="ETCIdloFaK" data-pptist-type="shape"><g transform="translate(640.00 390.11) scale(1 -1) translate(-640.00 -390.11)"><g transform="translate(433.76 388.31) scale(2.062448 0.017999)"><path d="M 0 0 L 200 0 L 200 200 L 0 200 Z" fill="#174994" stroke="#203864" stroke-width="0.00" opacity="1.000"/></g></g></g>
  <g data-pptist-id="nFWtCDIbNo" data-pptist-type="image"><image href="assets/inline_10f97b4d2b51.png" x="66.02" y="54.02" width="360.40" height="76.05" preserveAspectRatio="xMidYMid meet"/></g>
  <g data-pptist-id="hiYrF805dV" data-pptist-type="shape"><g><g transform="translate(0.00 448.00) scale(1.333333 1.333333)"><path d="M 0 0 L 0 204 L 222.8477 204 Z" fill="#6D9FEC" stroke="#203864" stroke-width="0.00" opacity="1.000"/></g></g></g>
  <g data-pptist-id="7g3cIkKLZW" data-pptist-type="shape"><g><g transform="translate(-0.00 486.06) scale(1.333333 1.333333)"><path d="M 0 0 L 0 175.4587 L 192.3772 175.4587 Z" fill="#174994" stroke="#203864" stroke-width="0.00" opacity="1.000"/></g></g></g>
  <g data-pptist-id="0cOwq2ikqI" data-pptist-type="shape"><g transform="rotate(180.00 1131.43 136.45)"><g transform="translate(982.87 0.45) scale(1.333333 1.333333)"><path d="M 0 0 L 0 204 L 222.8477 204 Z" fill="#6D9FEC" stroke="#203864" stroke-width="0.00" opacity="1.000"/></g></g></g>
  <g data-pptist-id="pVyhuv08Ue" data-pptist-type="shape"><g transform="rotate(180.00 1151.75 116.97)"><g transform="translate(1023.50 0.00) scale(1.333333 1.333333)"><path d="M 0 0 L 0 175.4587 L 192.3772 175.4587 Z" fill="#174994" stroke="#203864" stroke-width="0.00" opacity="1.000"/></g></g></g>

  <text data-pptist-id="tpl_bc941451a6" x="556.00" y="602.55" text-anchor="start" fill="#17499461" font-family="微软雅黑, sans-serif" font-size="54.0">{{CHAPTER_NUMBER}}</text>
  <text data-pptist-id="tpl_1f11e37f1a" x="640.00" y="304.22" text-anchor="middle" fill="#000000" font-family="微软雅黑, sans-serif" font-size="49.9">{{CHAPTER_TITLE}}</text>
</svg>
